<?xml version="1.0" encoding="UTF-8" standalone="no"?>
<!DOCTYPE svg PUBLIC "-//W3C//DTD SVG 1.1//EN" "http://www.w3.org/Graphics/SVG/1.1/DTD/svg11.dtd">
<svg width="100%" height="100%" viewBox="0 0 342 270" version="1.1" xmlns="http://www.w3.org/2000/svg" xmlns:xlink="http://www.w3.org/1999/xlink" xml:space="preserve" xmlns:serif="http://www.serif.com/" style="fill-rule:evenodd;clip-rule:evenodd;">
    <g transform="matrix(1,0,0,1,-30,-5)">
        <path d="M335.143,195.199L346.618,256.717L354.209,256.717L342.734,195.199L335.143,195.199Z" style="fill:rgb(204,227,255);"/>
    </g>
    <g transform="matrix(1,0,0,1,-30,-5)">
        <rect x="150.657" y="185.682" width="196.491" height="9.517" style="fill:rgb(215,235,255);"/>
    </g>
    <g transform="matrix(1,0,0,1,-30,-5)">
        <rect x="305.484" y="220.145" width="38.31" height="9.516" style="fill:rgb(215,235,255);"/>
    </g>
    <g transform="matrix(1,0,0,1,-30,-5)">
        <path d="M191.257,132.571L182.645,185.682L193.037,185.682L201.649,132.571L191.257,132.571Z" style="fill:rgb(204,227,255);"/>
    </g>
    <g transform="matrix(1,0,0,1,-30,-5)">
        <path d="M341.038,132.571L332.426,185.682L342.818,185.682L351.43,132.571L341.038,132.571Z" style="fill:rgb(204,227,255);"/>
    </g>
    <g transform="matrix(1,0,0,1,-30,-5)">
        <rect x="301.071" y="185.683" width="46.077" height="9.516" style="fill:rgb(182,212,255);"/>
    </g>
    <g transform="matrix(1,0,0,1,-30,-5)">
        <path d="M361.794,167.192L360.254,176.711L349.86,176.711L351.403,167.192L361.794,167.192Z" style="fill:rgb(204,227,255);"/>
    </g>
    <g transform="matrix(1,0,0,1,-30,-5)">
        <path d="M351.403,167.192L349.859,176.711L174.974,176.711L176.517,167.192L351.403,167.192Z" style="fill:rgb(215,235,255);"/>
    </g>
    <g transform="matrix(1,0,0,1,-30,-5)">
        <path d="M364.599,149.882L363.059,159.397L352.665,159.397L354.208,149.882L364.599,149.882Z" style="fill:rgb(204,227,255);"/>
    </g>
    <g transform="matrix(1,0,0,1,-30,-5)">
        <path d="M354.209,149.882L352.666,159.397L177.78,159.397L179.324,149.882L354.209,149.882Z" style="fill:rgb(215,235,255);"/>
    </g>
    <g transform="matrix(1,0,0,1,-30,-5)">
        <path d="M357.014,132.572L355.474,142.088L365.865,142.088L367.405,132.572L357.014,132.572Z" style="fill:rgb(204,227,255);"/>
    </g>
    <g transform="matrix(1,0,0,1,-30,-5)">
        <path d="M182.132,132.572L180.588,142.088L355.474,142.088L357.014,132.572L182.132,132.572Z" style="fill:rgb(215,235,255);"/>
    </g>
    <g transform="matrix(1,0,0,1,-30,-5)">
        <path d="M305.485,195.199L294.009,256.717L301.601,256.717L313.076,195.199L305.485,195.199Z" style="fill:rgb(204,227,255);"/>
    </g>
    <g transform="matrix(1,0,0,1,-30,-5)">
        <path d="M184.818,195.199L196.293,256.716L203.884,256.716L192.409,195.199L184.818,195.199Z" style="fill:rgb(204,227,255);"/>
    </g>
    <g transform="matrix(1,0,0,1,-30,-5)">
        <rect x="155.16" y="220.145" width="38.31" height="9.516" style="fill:rgb(215,235,255);"/>
    </g>
    <g transform="matrix(1,0,0,1,-30,-5)">
        <path d="M155.16,195.199L143.685,256.716L151.276,256.716L162.751,195.199L155.16,195.199Z" style="fill:rgb(204,227,255);"/>
    </g>
    <g transform="matrix(1,0,0,1,-30,-5)">
        <path d="M240.869,92.338C240.864,92.546 240.862,92.754 240.862,92.963C240.861,93.114 240.861,93.26 240.864,93.411L240.861,93.411L240.855,98.222L240.809,133.575L282.445,133.646L282.497,93.481L282.447,93.481C282.481,92.932 282.499,92.377 282.499,91.818C282.506,86.425 280.941,81.449 278.298,77.455C283.115,76.042 286.679,71.051 286.687,65.106C286.696,58.055 281.7,52.33 275.527,52.319C269.354,52.309 264.342,58.017 264.333,65.068C264.332,66.165 264.451,67.23 264.678,68.246C263.709,68.086 262.719,68.003 261.712,68.001C250.215,67.982 240.881,78.613 240.863,91.747C240.863,91.945 240.865,92.142 240.869,92.338Z" style="fill:rgb(25,20,30);fill-rule:nonzero;"/>
    </g>
    <g transform="matrix(1,0,0,1,-30,-5)">
        <path d="M261.852,91.749C261.509,91.873 261.155,91.978 260.791,92.064C260.496,92.136 260.197,92.194 259.889,92.237C259.396,92.312 258.887,92.347 258.37,92.346C255.094,92.341 252.235,90.83 250.705,88.588C250.624,88.945 250.531,89.297 250.427,89.642C250.371,89.817 250.314,89.999 250.249,90.174C249.839,91.354 249.292,92.448 248.633,93.423C247.715,94.781 246.576,95.911 245.283,96.736C245.863,101.48 247.287,107.862 250.636,110.407C252.479,111.807 255.83,111.979 258.684,111.791L259.34,121.055C259.34,121.055 263.973,118.745 266.625,117.036C267.083,116.742 267.48,116.465 267.784,116.219C267.734,115.673 267.62,114.404 267.474,112.818L267.474,112.812C267.212,109.957 266.854,106.075 266.62,103.516C268.184,100.808 272.442,100.199 272.448,96.39C272.448,95.248 271.864,93.274 269.708,93.27C266.815,93.264 267.226,97.226 267.226,97.226C265.587,97.955 263.635,95.119 261.852,91.749Z" style="fill:rgb(229,118,198);fill-rule:nonzero;"/>
    </g>
    <g transform="matrix(1,0,0,1,-30,-5)">
        <path d="M250.834,98.415L248.767,104.137L251.165,104.083L250.834,98.415Z" style="fill:rgb(64,95,211);"/>
    </g>
    <g transform="matrix(1,0,0,1,-30,-5)">
        <path d="M253.034,98.663C253.086,99.806 253.674,100.697 254.349,100.652C255.023,100.608 255.528,99.645 255.477,98.502C255.425,97.359 254.837,96.468 254.162,96.513C253.488,96.557 252.982,97.52 253.034,98.663" style="fill:rgb(13,11,109);"/>
    </g>
    <g transform="matrix(1,0,0,1,-30,-5)">
        <path d="M246.698,98.48C246.75,99.623 247.338,100.514 248.013,100.47C248.688,100.426 249.193,99.463 249.142,98.32C249.09,97.176 248.502,96.285 247.827,96.33C247.152,96.374 246.647,97.337 246.698,98.48" style="fill:rgb(13,11,109);"/>
    </g>
    <g transform="matrix(1,0,0,1,-30,-5)">
        <path d="M251.753,106.824C251.753,106.824 253.315,107.4 254.88,105.412" style="fill:none;fill-rule:nonzero;stroke:rgb(28,41,94);stroke-width:3px;"/>
    </g>
    <g transform="matrix(1,0,0,1,-30,-5)">
        <path d="M258.685,111.79C258.685,111.79 262.295,111.912 263.835,110.952L258.877,114.508L258.685,111.79Z" style="fill-opacity:0.4;"/>
    </g>
    <g transform="matrix(1,0,0,1,-30,-5)">
        <path d="M254.688,119.58C256.343,116.313 258.559,114.486 258.559,114.486L268.684,113.916C268.684,113.916 267.822,116.51 266.909,119.845C265.104,126.439 260.823,127.921 257.092,127.913C253.608,127.907 252.424,124.05 254.688,119.58ZM229.745,138.736C229.927,136.66 229.998,134.176 229.432,133.286C228.395,131.654 223.266,126.718 223.266,126.718L222.993,130.837L221.779,126.001C221.779,126.001 220.434,126.466 219.133,127.261C218.195,127.834 217.295,128.611 216.731,129.098L216.73,129.098L216.73,129.099C216.596,129.214 216.481,129.314 216.389,129.391C215.699,129.963 217.704,138.764 219.133,140.348C220.114,141.436 223.007,142.279 224.724,142.7C228.003,148.88 236.742,164.321 241.571,163.047C246.586,161.724 251.24,141.263 251.24,141.263L242.78,136.453L239.096,149.703L229.745,138.736ZM287.233,183.577L285.174,189.723C285.174,189.723 284.862,191.305 284.687,193.175L284.664,193.425C284.504,195.152 284.397,196.31 283.384,198.988C282.645,200.943 285.038,200.359 285.716,199.267C285.966,198.864 286.173,198.014 286.387,197.13C286.771,195.544 287.182,193.85 287.921,194.437C289.073,195.351 289.42,199.998 289.163,204.386C289.122,205.075 289.532,205.638 289.826,205.836C290.301,206.158 290.995,203.442 290.995,203.442C290.995,203.442 291.245,204.396 292.002,203.998C292.27,203.857 293.069,202.009 293.069,202.009C293.069,202.009 293.688,201.099 294.013,200.082C294.587,198.287 295.056,194.955 294.946,193.976C294.685,191.669 294.097,187.775 293.325,185.618C293.781,180.075 295.528,157.82 294.564,153.593C293.461,148.755 291.299,142.2 291.299,142.2L283.002,147.895L286.559,156.756L287.233,183.577Z" style="fill:rgb(229,118,198);"/>
    </g>
    <g transform="matrix(1,0,0,1,-30,-5)">
        <path d="M218.974,127.386C219.738,126.875 220.465,126.492 220.821,126.589C221.445,126.759 220.304,128.667 219.471,129.923L219.481,129.971C220.824,130.602 222.585,131.537 222.868,132.222C223.065,132.7 222.293,132.857 221.337,132.878C222.217,133.37 222.985,133.903 223.164,134.335C223.393,134.889 222.321,135.011 221.169,134.991C222.186,135.533 223.14,136.149 223.342,136.637C223.599,137.26 222.211,137.337 220.914,137.28L221.247,138.981C221.349,139.503 221.756,139.865 222.215,139.842L227.194,139.588C227.787,139.557 228.211,138.908 228.078,138.233L224.55,120.237C224.448,119.716 224.041,119.353 223.583,119.377L218.603,119.631C218.011,119.661 217.587,120.311 217.719,120.986L218.974,127.386Z" style="fill:rgb(2,1,1);"/>
    </g>
    <g transform="matrix(1,0,0,1,-30,-5)">
        <path d="M217.959,128.116C219.015,127.311 220.306,126.449 220.821,126.589C221.45,126.76 220.283,128.701 219.449,129.957C220.797,130.587 222.582,131.532 222.868,132.222C223.065,132.7 222.293,132.857 221.337,132.878C222.217,133.37 222.985,133.903 223.164,134.335C223.393,134.889 222.321,135.011 221.169,134.991C222.186,135.533 223.14,136.149 223.342,136.638C223.683,137.462 221.139,137.329 219.739,137.197L220.1,139.04C220.202,139.561 220.61,139.924 221.068,139.9L226.047,139.646C226.64,139.616 227.064,138.966 226.932,138.291L223.404,120.296C223.301,119.774 222.894,119.412 222.436,119.435L217.457,119.689C216.864,119.72 216.44,120.369 216.572,121.044L217.959,128.116Z" style="fill:rgb(94,147,209);fill-rule:nonzero;"/>
    </g>
    <g transform="matrix(1,0,0,1,-30,-5)">
        <path d="M222.12,121.82C222.236,122.409 222.534,122.828 222.785,122.755C223.037,122.681 223.147,122.143 223.031,121.554C222.915,120.964 222.617,120.545 222.365,120.619C222.113,120.692 222.003,121.23 222.12,121.82" style="fill:rgb(2,1,1);"/>
    </g>
    <g transform="matrix(1,0,0,1,-30,-5)">
        <path d="M222.702,124.871C222.818,125.461 223.116,125.88 223.368,125.807C223.619,125.733 223.729,125.195 223.613,124.606C223.497,124.016 223.199,123.597 222.948,123.67C222.696,123.744 222.586,124.282 222.702,124.871" style="fill:rgb(2,1,1);"/>
    </g>
    <g transform="matrix(1,0,0,1,-30,-5)">
        <path d="M265.347,114.104L268.684,113.916C268.684,113.916 267.822,116.51 266.909,119.845C265.104,126.439 260.823,127.921 257.092,127.913C253.608,127.907 252.424,124.05 254.688,119.58C256.146,116.703 258.039,114.942 258.469,114.563C254.069,114.91 251.33,115.555 248.792,118.332C243.962,123.62 240.05,133.367 238.442,142.997L247.269,147.595L250.413,161.773L273.516,161.362C273.516,161.362 273.314,158.765 273.812,155.012C274.461,150.104 276.804,146.441 276.804,146.441L279.127,150.563L293.579,140.621C288.847,130.553 282.248,120.171 277.848,116.868C274.74,114.534 271.894,113.948 269.113,113.916C267.849,113.901 266.579,114.002 265.347,114.104Z" style="fill:rgb(94,147,209);fill-rule:nonzero;"/>
    </g>
    <g transform="matrix(1,0,0,1,-30,-5)">
        <path d="M250.31,162.02C249.428,148.94 243.595,145.854 247.996,131.185" style="fill:none;fill-rule:nonzero;stroke:black;stroke-opacity:0.2;stroke-width:3px;"/>
    </g>
    <g transform="matrix(1,0,0,1,-30,-5)">
        <path d="M258.559,114.486C258.559,114.486 256.343,116.313 254.689,119.58C252.424,124.05 253.608,127.907 257.092,127.913C260.823,127.921 265.104,126.439 266.909,119.845C267.822,116.51 268.684,113.916 268.684,113.916" style="fill:none;fill-rule:nonzero;stroke:black;stroke-opacity:0.2;stroke-width:3px;"/>
    </g>
    <g transform="matrix(1,0,0,1,-30,-5)">
        <path d="M270.87,137.285L276.231,146.763" style="fill:none;fill-rule:nonzero;stroke:black;stroke-opacity:0.2;stroke-width:3px;"/>
    </g>
    <g transform="matrix(1,0,0,1,-30,-5)">
        <path d="M69.879,57.095C70.501,58.346 73.228,62.967 79.692,63.405C85.936,63.823 85.473,60.021 85.147,58.749C85.001,58.703 84.855,58.656 84.708,58.609C83.335,58.172 81.873,57.707 79.872,57.468C74.409,56.817 73.98,56.77 69.879,57.095ZM119.366,77.258C116.395,83.97 105.964,106.003 98.528,102.489C92.961,99.857 86.295,78.041 86.295,78.041L97.13,70.624L101.998,85.616L111.938,73.192C111.601,70.73 111.33,67.512 112.003,66.378C113.149,64.447 118.945,58.497 118.945,58.497L120,68.577L120.184,67.728C120.184,67.68 120.194,67.629 120.215,67.574L120.221,67.558L120.648,65.591C120.469,65.487 120.395,65.339 120.473,65.133C120.536,64.967 120.673,64.784 120.864,64.593L122.321,57.877C122.321,57.877 122.799,58.122 123.5,58.488C124.628,58.221 128.71,61.414 128.772,61.462L128.773,61.463C129.604,62.08 127.627,72.289 126.021,74.186C124.878,75.535 121.323,76.698 119.366,77.258ZM52.992,122.781L53.656,124.23C53.656,124.23 54.257,125.414 54.886,127.481C55.118,128.245 55.229,128.9 55.345,129.585C55.543,130.754 55.756,132.013 56.613,134.059C58.157,137.744 55.395,136.225 54.405,134.616C54.08,134.088 53.907,133.481 53.741,132.898C53.513,132.098 53.298,131.343 52.718,130.903C52.689,130.956 52.657,131.012 52.622,131.072C52.252,131.705 51.578,132.86 51.187,137.718C51.11,138.671 51.486,141.765 51.486,141.765C51.487,141.834 51.488,141.908 51.489,141.987C51.504,142.97 51.529,144.646 50.68,144.919C50.453,144.993 50.157,144.704 50.157,144.704C50.157,144.704 50.246,145.913 49.309,146.154C48.94,146.248 48.208,143.637 48.208,143.637C48.208,143.637 48.097,144.963 47.397,145.111C47.199,145.152 44.862,137.586 44.862,137.586L45.003,139.295L45.313,141.045C45.313,141.045 45.288,141.987 44.63,142.154C44.369,142.22 43.868,140.649 43.398,138.8C42.667,135.924 42.682,133.762 42.897,131.612C42.949,131.091 42.986,130.639 43.02,130.224C43.156,128.571 43.243,127.503 44.046,124.957C44.167,124.576 44.328,124.138 44.508,123.689C43.957,118.212 42.403,102.182 42.593,97.261C42.824,91.292 48.321,78.042 48.321,78.042L59.481,85.219L53.33,98.114L52.992,122.781Z" style="fill:rgb(229,118,198);"/>
    </g>
    <g transform="matrix(1,0,0,1,-30,-5)">
        <path d="M59.145,111.748L94.95,111.748L96.262,86.323L102.546,82.109L98.143,70.464L98.104,70.472C97.921,70.049 97.72,69.61 97.499,69.153C94.767,63.491 90.093,60.298 85.147,58.749C85.068,58.724 85.036,58.706 85.031,58.712C85.02,58.725 85.193,58.89 85.242,59.474C85.311,60.285 85.088,61.387 84.854,61.722C84.301,62.512 83.466,62.96 83.129,63.066C82.793,63.171 82.527,63.232 82.23,63.3C82.022,63.348 80.837,63.449 80.632,63.437C78.947,63.336 78.12,63.246 77.059,62.956C76.683,62.853 76.294,62.736 75.833,62.513C75.746,62.471 75.652,62.426 75.55,62.378C75.052,62.143 74.388,61.829 73.714,61.396C73.001,60.937 72.275,60.333 71.749,59.716C71.698,59.656 71.649,59.598 71.601,59.542C71.049,58.895 70.672,58.453 70.411,58.011C70.235,57.711 70.168,57.612 70.129,57.553C70.105,57.518 70.091,57.497 70.07,57.457C70.012,57.349 69.962,57.254 69.948,57.191C69.932,57.122 69.988,57.093 69.985,57.086C69.984,57.082 69.959,57.086 69.879,57.095C67.359,57.382 64.65,58.13 61.697,59.716C52.562,64.618 47.223,76.935 47.223,76.935L58.544,86.674L59.145,111.748Z" style="fill:rgb(94,147,209);"/>
    </g>
    <g transform="matrix(1,0,0,1,-30,-5)">
        <path d="M58.544,86.673L61.416,88.909L68.319,79.687" style="fill:none;fill-rule:nonzero;stroke:black;stroke-opacity:0.2;stroke-width:5px;"/>
    </g>
    <g transform="matrix(1,0,0,1,-30,-5)">
        <path d="M124.109,70.372L123.609,73.188L115.508,73.188L119.329,50.774L127.43,50.774C127.22,52.006 126.726,54.907 125.946,59.477L124.354,58.63L123.857,58.472L123.467,58.497L123.298,58.63L123.298,59.175L125.029,62.032L123.705,62.694L121.666,63.92L121.078,64.388L120.849,64.631L120.663,64.822L120.544,64.986L120.473,65.133L120.442,65.324L120.473,65.409L120.508,65.474L120.56,65.533L121.228,65.803L122.752,65.324L124.258,65.324L122.248,65.803L120.923,66.713L120.473,67.199L120.219,67.557L120.219,67.884L120.663,68.114L123.467,67.745L122.538,68.324L121.923,68.762L121.359,69.095L120.923,69.741L120.923,70.06L121.078,70.247L121.469,70.486L123.269,70.486L124.109,70.372Z" style="fill:rgb(94,147,209);fill-rule:nonzero;"/>
    </g>
    <g transform="matrix(1,0,0,1,-30,-5)">
        <path d="M115.507,73.188L114.167,73.188L117.988,50.774L119.328,50.774L115.507,73.188Z" style="fill:rgb(2,1,1);"/>
    </g>
    <g transform="matrix(1,0,0,1,-30,-5)">
        <path d="M120.723,53.377C120.611,54.031 120.279,54.508 119.982,54.441C119.685,54.375 119.534,53.79 119.646,53.135C119.758,52.481 120.09,52.004 120.388,52.07C120.685,52.137 120.835,52.722 120.723,53.377" style="fill:rgb(2,1,1);"/>
    </g>
    <g transform="matrix(1,0,0,1,-30,-5)">
        <path d="M89.822,262.823L89.899,255.313L81.352,250.436L80.112,271.904L109.723,271.904C104.685,265.475 89.822,262.823 89.822,262.823ZM52.711,263.115L52.788,254.681L44.072,254.212L43.279,262.649L41.252,271.904L61.519,271.904C58.971,264.042 52.711,263.115 52.711,263.115Z" style="fill:rgb(13,11,109);"/>
    </g>
    <g transform="matrix(1,0,0,1,-30,-5)">
        <path d="M52.788,254.681L44.241,251.771L43.279,262.649L52.711,263.115L52.788,254.681ZM89.899,255.313L81.352,252.404L80.663,262.356L89.822,262.823L89.899,255.313Z" style="fill:rgb(229,118,198);"/>
    </g>
    <g transform="matrix(1,0,0,1,-30,-5)">
        <path d="M76.504,147.336L56.447,259.648L41.069,259.648L59.464,111.242L95.845,111.242L94.579,259.074L89.859,259.151L80.874,259.302L80.841,259.302L78.55,259.339L76.504,147.336Z" style="fill:rgb(47,47,61);fill-rule:nonzero;"/>
    </g>
    <g transform="matrix(1,0,0,1,-30,-5)">
        <path d="M76.56,146.503L80.019,129.128L77.416,181.805L76.56,146.503Z" style="fill-opacity:0.2;"/>
    </g>
    <g transform="matrix(1,0,0,1,-30,-5)">
        <path d="M195.623,221.796L198.396,215.473L205.07,216.637L195.992,233.877L176.08,218.568C182.934,216.796 195.623,221.796 195.623,221.796ZM226.803,255.122L226.109,248.102L232.208,244.822L233.109,264.927L209.032,264.879C213.888,259.045 226.803,255.122 226.803,255.122Z" style="fill:rgb(13,11,109);"/>
    </g>
    <g transform="matrix(1,0,0,1,-30,-5)">
        <path d="M197.693,216.369L204.457,218.006L200.563,225.245L194.954,221.284L197.693,216.369ZM226.102,249.534L232.5,246.589L232.696,255.084L226.157,255.362L226.102,249.534Z" style="fill:rgb(229,118,198);"/>
    </g>
    <g transform="matrix(1,0,0,1,-30,-5)">
        <path d="M216.434,209.664L219.746,251.302L235.082,251.302L234.401,190.846L263.674,191.08C272.025,191.08 280.102,182.771 279.522,173.115L278.612,163.283L233.908,147.983C225.633,145.815 222.763,148.679 217.398,159.744L193.709,216.001L206.722,226.076L216.434,209.664Z" style="fill:rgb(47,47,61);fill-rule:nonzero;"/>
    </g>
    <g transform="matrix(1,0,0,1,-30,-5)">
        <path d="M230.174,166.863L263.674,191.08L234.401,190.846L235.082,251.302L219.746,251.302L214.488,185.184C213.191,173.154 219.689,166.863 230.174,166.863" style="fill:rgb(24,24,28);fill-opacity:0.15;"/>
    </g>
    <g transform="matrix(1,0,0,1,-30,-5)">
        <path d="M84.129,59.739L83.886,52.144C83.886,52.144 94.064,52.879 96.241,51.853C96.241,51.853 98.902,39.421 95.728,32.536L95.664,32.268L74.186,29.99L72.837,41.011C72.113,39.076 66.288,37.037 64.727,39.808C61.345,45.812 73.439,49.855 73.439,49.855L72.211,59.83" style="fill:rgb(229,118,198);fill-rule:nonzero;"/>
    </g>
    <g transform="matrix(1,0,0,1,-30,-5)">
        <path d="M83.886,52.144L77.023,50.809L83.853,54.993L83.886,52.144Z" style="fill-opacity:0.4;"/>
    </g>
    <g transform="matrix(1,0,0,1,-30,-5)">
        <path d="M89.547,39.732L91.919,44.99L89.077,45.023L89.547,39.732Z" style="fill:rgb(64,95,211);"/>
    </g>
    <g transform="matrix(1,0,0,1,-30,-5)">
        <path d="M86.843,41.226C86.985,41.934 86.466,42.612 85.686,42.74C84.905,42.868 84.157,42.398 84.016,41.69C83.875,40.982 84.393,40.305 85.174,40.177C85.955,40.048 86.702,40.518 86.843,41.226" style="fill:rgb(13,11,109);"/>
    </g>
    <g transform="matrix(1,0,0,1,-30,-5)">
        <path d="M94.302,41.226C94.444,41.934 93.925,42.612 93.144,42.74C92.364,42.868 91.616,42.398 91.475,41.69C91.334,40.982 91.852,40.305 92.633,40.177C93.414,40.048 94.161,40.518 94.302,41.226" style="fill:rgb(13,11,109);"/>
    </g>
    <g transform="matrix(1,0,0,1,-30,-5)">
        <path d="M86.599,46.512C86.599,46.512 87.592,47.972 89.56,47.849L86.599,46.512Z" style="fill:white;"/>
    </g>
    <g transform="matrix(1,0,0,1,-30,-5)">
        <path d="M86.599,46.512C86.599,46.512 87.592,47.972 89.56,47.849" style="fill:none;fill-rule:nonzero;stroke:rgb(37,37,53);stroke-width:4px;"/>
    </g>
    <g transform="matrix(1,0,0,1,-30,-5)">
        <path d="M73.731,41.936C72.746,40.785 71.649,40.023 70.657,39.52L70.891,35.12L80.98,33.524C80.154,38.568 76.498,40.889 73.731,41.936Z" style="fill:rgb(25,20,30);"/>
    </g>
    <g transform="matrix(1,0,0,1,-30,-5)">
        <path d="M63.273,33.752C63.273,33.752 59.836,22.568 69.729,16.397C81.974,8.757 96.147,28.828 96.147,28.828" style="fill:rgb(206,61,41);fill-rule:nonzero;"/>
    </g>
    <g transform="matrix(1,0,0,1,-30,-5)">
        <path d="M72.104,13.76C72.653,16.286 70.84,18.737 68.055,19.235C65.269,19.734 62.566,18.09 62.016,15.564C61.467,13.038 63.28,10.587 66.065,10.089C68.851,9.591 71.554,11.235 72.104,13.76ZM60.752,35.038C60.523,33.873 61.359,32.755 62.637,32.517L95.168,26.457C96.394,26.229 97.608,26.89 97.961,27.979L99.802,33.653C100.21,34.909 99.314,36.206 97.889,36.422L64.437,41.484C63.136,41.681 61.902,40.891 61.671,39.714L60.752,35.038ZM68.368,21.758L62.701,28.815L76.988,25.739L77.023,25.756L77.044,25.727L90.883,22.748L82,18.995L77.044,25.727L76.988,25.739L68.368,21.758Z" style="fill:rgb(36,55,168);"/>
    </g>
</svg>
