<svg id="visual" viewBox="0 0 900 900" width="900" height="900" xmlns="http://www.w3.org/2000/svg" xmlns:xlink="http://www.w3.org/1999/xlink" version="1.1"><rect x="0" y="0" width="900" height="900" fill="#343330"></rect><path d="M0 567L21.5 563.3C43 559.7 86 552.3 128.8 540.5C171.7 528.7 214.3 512.3 257.2 514.3C300 516.3 343 536.7 385.8 555.5C428.7 574.3 471.3 591.7 514.2 596.3C557 601 600 593 642.8 567.5C685.7 542 728.3 499 771.2 470.7C814 442.3 857 428.7 878.5 421.8L900 415L900 901L878.5 901C857 901 814 901 771.2 901C728.3 901 685.7 901 642.8 901C600 901 557 901 514.2 901C471.3 901 428.7 901 385.8 901C343 901 300 901 257.2 901C214.3 901 171.7 901 128.8 901C86 901 43 901 21.5 901L0 901Z" fill="#8ca019"></path><path d="M0 440L21.5 453C43 466 86 492 128.8 511.8C171.7 531.7 214.3 545.3 257.2 567.5C300 589.7 343 620.3 385.8 633.3C428.7 646.3 471.3 641.7 514.2 631.2C557 620.7 600 604.3 642.8 571.5C685.7 538.7 728.3 489.3 771.2 463.8C814 438.3 857 436.7 878.5 435.8L900 435L900 901L878.5 901C857 901 814 901 771.2 901C728.3 901 685.7 901 642.8 901C600 901 557 901 514.2 901C471.3 901 428.7 901 385.8 901C343 901 300 901 257.2 901C214.3 901 171.7 901 128.8 901C86 901 43 901 21.5 901L0 901Z" fill="#8fab17"></path><path d="M0 554L21.5 545.7C43 537.3 86 520.7 128.8 542.8C171.7 565 214.3 626 257.2 630.3C300 634.7 343 582.3 385.8 565.3C428.7 548.3 471.3 566.7 514.2 565C557 563.3 600 541.7 642.8 534.7C685.7 527.7 728.3 535.3 771.2 564.3C814 593.3 857 643.7 878.5 668.8L900 694L900 901L878.5 901C857 901 814 901 771.2 901C728.3 901 685.7 901 642.8 901C600 901 557 901 514.2 901C471.3 901 428.7 901 385.8 901C343 901 300 901 257.2 901C214.3 901 171.7 901 128.8 901C86 901 43 901 21.5 901L0 901Z" fill="#92b614"></path><path d="M0 707L21.5 696.8C43 686.7 86 666.3 128.8 663.7C171.7 661 214.3 676 257.2 679.3C300 682.7 343 674.3 385.8 668.8C428.7 663.3 471.3 660.7 514.2 660.2C557 659.7 600 661.3 642.8 656.3C685.7 651.3 728.3 639.7 771.2 642.3C814 645 857 662 878.5 670.5L900 679L900 901L878.5 901C857 901 814 901 771.2 901C728.3 901 685.7 901 642.8 901C600 901 557 901 514.2 901C471.3 901 428.7 901 385.8 901C343 901 300 901 257.2 901C214.3 901 171.7 901 128.8 901C86 901 43 901 21.5 901L0 901Z" fill="#93c213"></path><path d="M0 730L21.5 739.2C43 748.3 86 766.7 128.8 760.5C171.7 754.3 214.3 723.7 257.2 720.8C300 718 343 743 385.8 737.5C428.7 732 471.3 696 514.2 698.3C557 700.7 600 741.3 642.8 761.5C685.7 781.7 728.3 781.3 771.2 771.5C814 761.7 857 742.3 878.5 732.7L900 723L900 901L878.5 901C857 901 814 901 771.2 901C728.3 901 685.7 901 642.8 901C600 901 557 901 514.2 901C471.3 901 428.7 901 385.8 901C343 901 300 901 257.2 901C214.3 901 171.7 901 128.8 901C86 901 43 901 21.5 901L0 901Z" fill="#93ce13"></path><path d="M0 734L21.5 734C43 734 86 734 128.8 731.8C171.7 729.7 214.3 725.3 257.2 727.3C300 729.3 343 737.7 385.8 749.2C428.7 760.7 471.3 775.3 514.2 778.2C557 781 600 772 642.8 775.5C685.7 779 728.3 795 771.2 793.2C814 791.3 857 771.7 878.5 761.8L900 752L900 901L878.5 901C857 901 814 901 771.2 901C728.3 901 685.7 901 642.8 901C600 901 557 901 514.2 901C471.3 901 428.7 901 385.8 901C343 901 300 901 257.2 901C214.3 901 171.7 901 128.8 901C86 901 43 901 21.5 901L0 901Z" fill="#93da15"></path><path d="M0 781L21.5 786.3C43 791.7 86 802.3 128.8 802.3C171.7 802.3 214.3 791.7 257.2 788.3C300 785 343 789 385.8 799C428.7 809 471.3 825 514.2 823.8C557 822.7 600 804.3 642.8 800.2C685.7 796 728.3 806 771.2 808.3C814 810.7 857 805.3 878.5 802.7L900 800L900 901L878.5 901C857 901 814 901 771.2 901C728.3 901 685.7 901 642.8 901C600 901 557 901 514.2 901C471.3 901 428.7 901 385.8 901C343 901 300 901 257.2 901C214.3 901 171.7 901 128.8 901C86 901 43 901 21.5 901L0 901Z" fill="#91e619"></path></svg>