<svg id="visual" viewBox="0 0 900 600" width="900" height="600" xmlns="http://www.w3.org/2000/svg" xmlns:xlink="http://www.w3.org/1999/xlink" version="1.1"><rect x="0" y="0" width="900" height="600" fill="#343330"></rect><path d="M0 378L21.5 375.5C43 373 86 368 128.8 360C171.7 352 214.3 341 257.2 342.3C300 343.7 343 357.3 385.8 369.8C428.7 382.3 471.3 393.7 514.2 396.7C557 399.7 600 394.3 642.8 377.5C685.7 360.7 728.3 332.3 771.2 313.5C814 294.7 857 285.3 878.5 280.7L900 276L900 601L878.5 601C857 601 814 601 771.2 601C728.3 601 685.7 601 642.8 601C600 601 557 601 514.2 601C471.3 601 428.7 601 385.8 601C343 601 300 601 257.2 601C214.3 601 171.7 601 128.8 601C86 601 43 601 21.5 601L0 601Z" fill="#8ca019"></path><path d="M0 293L21.5 301.7C43 310.3 86 327.7 128.8 340.8C171.7 354 214.3 363 257.2 377.8C300 392.7 343 413.3 385.8 422C428.7 430.7 471.3 427.3 514.2 420.2C557 413 600 402 642.8 380.2C685.7 358.3 728.3 325.7 771.2 308.7C814 291.7 857 290.3 878.5 289.7L900 289L900 601L878.5 601C857 601 814 601 771.2 601C728.3 601 685.7 601 642.8 601C600 601 557 601 514.2 601C471.3 601 428.7 601 385.8 601C343 601 300 601 257.2 601C214.3 601 171.7 601 128.8 601C86 601 43 601 21.5 601L0 601Z" fill="#8fab17"></path><path d="M0 369L21.5 363.5C43 358 86 347 128.8 361.8C171.7 376.7 214.3 417.3 257.2 420.2C300 423 343 388 385.8 376.7C428.7 365.3 471.3 377.7 514.2 376.7C557 375.7 600 361.3 642.8 356.5C685.7 351.7 728.3 356.3 771.2 375.5C814 394.7 857 428.3 878.5 445.2L900 462L900 601L878.5 601C857 601 814 601 771.2 601C728.3 601 685.7 601 642.8 601C600 601 557 601 514.2 601C471.3 601 428.7 601 385.8 601C343 601 300 601 257.2 601C214.3 601 171.7 601 128.8 601C86 601 43 601 21.5 601L0 601Z" fill="#92b614"></path><path d="M0 471L21.5 464.2C43 457.3 86 443.7 128.8 441.8C171.7 440 214.3 450 257.2 452.3C300 454.7 343 449.3 385.8 445.8C428.7 442.3 471.3 440.7 514.2 440.3C557 440 600 441 642.8 437.5C685.7 434 728.3 426 771.2 427.7C814 429.3 857 440.7 878.5 446.3L900 452L900 601L878.5 601C857 601 814 601 771.2 601C728.3 601 685.7 601 642.8 601C600 601 557 601 514.2 601C471.3 601 428.7 601 385.8 601C343 601 300 601 257.2 601C214.3 601 171.7 601 128.8 601C86 601 43 601 21.5 601L0 601Z" fill="#93c213"></path><path d="M0 486L21.5 492.2C43 498.3 86 510.7 128.8 506.5C171.7 502.3 214.3 481.7 257.2 479.7C300 477.7 343 494.3 385.8 490.7C428.7 487 471.3 463 514.2 464.7C557 466.3 600 493.7 642.8 507.2C685.7 520.7 728.3 520.3 771.2 513.8C814 507.3 857 494.7 878.5 488.3L900 482L900 601L878.5 601C857 601 814 601 771.2 601C728.3 601 685.7 601 642.8 601C600 601 557 601 514.2 601C471.3 601 428.7 601 385.8 601C343 601 300 601 257.2 601C214.3 601 171.7 601 128.8 601C86 601 43 601 21.5 601L0 601Z" fill="#93ce13"></path><path d="M0 489L21.5 489C43 489 86 489 128.8 487.5C171.7 486 214.3 483 257.2 484.3C300 485.7 343 491.3 385.8 499C428.7 506.7 471.3 516.3 514.2 518.3C557 520.3 600 514.7 642.8 517C685.7 519.3 728.3 529.7 771.2 528.3C814 527 857 514 878.5 507.5L900 501L900 601L878.5 601C857 601 814 601 771.2 601C728.3 601 685.7 601 642.8 601C600 601 557 601 514.2 601C471.3 601 428.7 601 385.8 601C343 601 300 601 257.2 601C214.3 601 171.7 601 128.8 601C86 601 43 601 21.5 601L0 601Z" fill="#93da15"></path><path d="M0 521L21.5 524.3C43 527.7 86 534.3 128.8 534.2C171.7 534 214.3 527 257.2 524.8C300 522.7 343 525.3 385.8 532C428.7 538.7 471.3 549.3 514.2 548.7C557 548 600 536 642.8 533.3C685.7 530.7 728.3 537.3 771.2 538.8C814 540.3 857 536.7 878.5 534.8L900 533L900 601L878.5 601C857 601 814 601 771.2 601C728.3 601 685.7 601 642.8 601C600 601 557 601 514.2 601C471.3 601 428.7 601 385.8 601C343 601 300 601 257.2 601C214.3 601 171.7 601 128.8 601C86 601 43 601 21.5 601L0 601Z" fill="#91e619"></path></svg>